<svg xmlns="http://www.w3.org/2000/svg" width="900" height="400" viewBox="0 0 900 400">
<defs>
<style>
/* wall scroll */
.wsc{animation:wscr 16s linear infinite}
@keyframes wscr{from{transform:translateX(0)}to{transform:translateX(-900px)}}
/* sun rays spin around sun center */
.sray{animation:srspin 10s linear infinite;transform-origin:820px 55px}
@keyframes srspin{to{transform:rotate(360deg)}}
/* stars twinkle */
.sa{animation:twk 2s ease-in-out infinite alternate}
.sb{animation:twk 1.7s ease-in-out infinite alternate .55s}
.sc{animation:twk 2.4s ease-in-out infinite alternate 1.1s}
@keyframes twk{from{opacity:1}to{opacity:.08}}
/* clouds */
.cl1{animation:cl1m 26s linear infinite}
@keyframes cl1m{from{transform:translateX(0)}to{transform:translateX(-1100px)}}
.cl2{animation:cl2m 38s linear infinite 9s}
@keyframes cl2m{from{transform:translateX(300px)}to{transform:translateX(-1100px)}}
/* trump legs - each leg rotates around its own top-center */
.tll{animation:tleg .42s ease-in-out infinite alternate;transform-box:fill-box;transform-origin:50% 0%}
@keyframes tleg{from{transform:rotate(22deg)}to{transform:rotate(-22deg)}}
.tlr{animation:tleg .42s ease-in-out infinite alternate .21s;transform-box:fill-box;transform-origin:50% 0%}
/* trump arm extends when firing */
.tarm{animation:tarmf 14s linear infinite;transform-box:fill-box;transform-origin:0% 50%}
@keyframes tarmf{0%,33%{transform:scaleX(1)}35%,37%{transform:scaleX(1.85)}38%,100%{transform:scaleX(1)}}
/* maga hat bop */
.hat{animation:hatb .42s ease-in-out infinite alternate;transform-box:fill-box;transform-origin:50% 100%}
@keyframes hatb{from{transform:rotate(-3deg)}to{transform:rotate(3deg)}}
/* biden walks in from right, gets hit, disappears, repeats */
.bgrp{animation:bwalk 14s linear infinite}
@keyframes bwalk{
  0%   {transform:translateX(900px);opacity:1}
  28%  {transform:translateX(362px);opacity:1}
  38%  {transform:translateX(362px);opacity:1}
  42%  {transform:translateX(580px);opacity:0}
  43%,99%{transform:translateX(900px);opacity:0}
  100% {transform:translateX(900px);opacity:1}
}
/* biden legs */
.bll{animation:bleg .44s ease-in-out infinite alternate;transform-box:fill-box;transform-origin:50% 0%}
@keyframes bleg{from{transform:rotate(20deg)}to{transform:rotate(-20deg)}}
.blr{animation:bleg .44s ease-in-out infinite alternate .22s;transform-box:fill-box;transform-origin:50% 0%}
/* rocket */
.rkt{animation:rfly 14s linear infinite}
@keyframes rfly{
  0%,33%  {transform:translate(168px,218px);opacity:0}
  34%     {transform:translate(168px,218px);opacity:1}
  40%     {transform:translate(400px,218px);opacity:1}
  41%,100%{transform:translate(400px,218px);opacity:0}
}
/* explosion at biden chest x=380 y=218 */
.expl{animation:boom 14s linear infinite;transform-box:fill-box;transform-origin:50% 50%}
@keyframes boom{
  0%,40% {transform:scale(0);opacity:0}
  42%    {transform:scale(1);opacity:1}
  50%    {transform:scale(2.1);opacity:.8}
  58%    {transform:scale(3.2);opacity:0}
  100%   {transform:scale(0);opacity:0}
}
/* pop texts */
.pcmn{animation:pcma 14s linear infinite}
@keyframes pcma{0%,40%{opacity:0;transform:translateY(0)}42%{opacity:1;transform:translateY(0)}52%{opacity:1;transform:translateY(-22px)}60%{opacity:0;transform:translateY(-38px)}100%{opacity:0}}
.pwin{animation:pwna 14s linear infinite}
@keyframes pwna{0%,44%{opacity:0;transform:translateY(0)}46%{opacity:1;transform:translateY(0)}55%{opacity:1;transform:translateY(-18px)}63%{opacity:0;transform:translateY(-30px)}100%{opacity:0}}
/* dollar bills */
.d1{animation:dola 7s linear infinite}
.d2{animation:dola 7s linear infinite 2.3s}
.d3{animation:dola 7s linear infinite 4.7s}
@keyframes dola{
  0%  {transform:translate(880px,215px) rotate(0deg);opacity:0}
  4%  {opacity:1}
  90% {transform:translate(-30px,188px) rotate(25deg);opacity:1}
  96% {opacity:0}
  100%{transform:translate(-60px,188px) rotate(28deg);opacity:0}
}
/* score flash on kill */
.scfl{animation:scf 14s linear infinite}
@keyframes scf{0%,40%{fill:#FFD700}42%,52%{fill:#00ff55}53%,100%{fill:#FFD700}}
/* play button pulse */
.pbtn{animation:pbtna 1.5s ease-in-out infinite;transform-box:fill-box;transform-origin:50% 50%}
@keyframes pbtna{0%,100%{transform:scale(1)}50%{transform:scale(1.04)}}
/* title glow */
.tglw{animation:tglwa 2s ease-in-out infinite}
@keyframes tglwa{0%,100%{filter:drop-shadow(0 0 4px #FFD700)}50%{filter:drop-shadow(0 0 20px #FFD700) drop-shadow(0 0 40px rgba(255,215,0,.5))}}
</style>

<linearGradient id="gsky" x1="0" y1="0" x2="0" y2="1">
  <stop offset="0%"   stop-color="#002060"/>
  <stop offset="60%"  stop-color="#1155cc"/>
  <stop offset="100%" stop-color="#3a80d5"/>
</linearGradient>
<linearGradient id="gwall" x1="0" y1="0" x2="0" y2="1">
  <stop offset="0%"   stop-color="#D5C898"/>
  <stop offset="100%" stop-color="#C0A868"/>
</linearGradient>
<linearGradient id="ggnd" x1="0" y1="0" x2="0" y2="1">
  <stop offset="0%"   stop-color="#486018"/>
  <stop offset="100%" stop-color="#243410"/>
</linearGradient>
<radialGradient id="gexpl" cx="50%" cy="50%" r="50%">
  <stop offset="0%"   stop-color="#ffffff"/>
  <stop offset="20%"  stop-color="#FFD700"/>
  <stop offset="55%"  stop-color="#FF4400"/>
  <stop offset="100%" stop-color="rgba(200,0,0,0)"/>
</radialGradient>
<linearGradient id="gbtn" x1="0" y1="0" x2="0" y2="1">
  <stop offset="0%"   stop-color="#CC1111"/>
  <stop offset="100%" stop-color="#880000"/>
</linearGradient>

<clipPath id="scene"><rect x="0" y="48" width="900" height="264"/></clipPath>
<clipPath id="wclip"><rect x="0" y="80" width="900" height="160"/></clipPath>
</defs>

<!-- ══════════════════════════════════════ HEADER -->
<rect x="0" y="0" width="900" height="48" fill="#07021a"/>
<line x1="0" y1="46" x2="900" y2="46" stroke="#FFD700" stroke-width="2"/>
<text x="16" y="34" font-size="22" font-family="Arial">🇺🇸</text>
<text x="860" y="34" font-size="22" font-family="Arial">🇺🇸</text>
<g class="tglw">
  <text x="450" y="32" font-family="Impact,Arial Black,Arial" font-size="26" font-weight="bold"
    text-anchor="middle" letter-spacing="6" fill="#FFD700">TRUMP RUN</text>
</g>
<text x="450" y="44" font-family="Impact,Arial" font-size="9" text-anchor="middle"
  letter-spacing="5" fill="#BF0A30">MAKE GAMING GREAT AGAIN</text>

<!-- ══════════════════════════════════════ SCENE -->
<g clip-path="url(#scene)">

<!-- SKY -->
<rect x="0" y="48" width="900" height="196" fill="url(#gsky)"/>

<!-- STARS -->
<circle class="sa" cx="50"  cy="63" r="1.8" fill="white"/>
<circle class="sb" cx="118" cy="56" r="1.4" fill="white"/>
<circle class="sc" cx="188" cy="76" r="1.4" fill="white"/>
<circle class="sa" cx="264" cy="58" r="1.8" fill="white"/>
<circle class="stb" cx="344" cy="72" r="1.4" fill="white"/>
<circle class="sc" cx="428" cy="62" r="1.8" fill="white"/>
<circle class="sa" cx="518" cy="75" r="1.4" fill="white"/>
<circle class="sb" cx="614" cy="59" r="1.8" fill="white"/>
<circle class="sc" cx="700" cy="78" r="1.4" fill="white"/>
<circle class="sa" cx="766" cy="64" r="1.8" fill="white"/>

<!-- CLOUDS -->
<g class="cl1">
  <ellipse cx="155"  cy="86" rx="52" ry="15" fill="rgba(200,220,255,.13)"/>
  <ellipse cx="127"  cy="91" rx="32" ry="12" fill="rgba(200,220,255,.13)"/>
  <ellipse cx="187"  cy="91" rx="30" ry="11" fill="rgba(200,220,255,.13)"/>
  <ellipse cx="1055" cy="76" rx="46" ry="14" fill="rgba(200,220,255,.13)"/>
</g>
<g class="cl2">
  <ellipse cx="100" cy="97"  rx="42" ry="12" fill="rgba(200,220,255,.09)"/>
  <ellipse cx="75"  cy="101" rx="25" ry="10" fill="rgba(200,220,255,.09)"/>
  <ellipse cx="750" cy="84"  rx="48" ry="13" fill="rgba(200,220,255,.09)"/>
</g>

<!-- SUN -->
<g class="sray">
  <line x1="820" y1="23" x2="820" y2="9"   stroke="#FFD700" stroke-width="2.2" opacity=".5"/>
  <line x1="843" y1="32" x2="853" y2="22"  stroke="#FFD700" stroke-width="2.2" opacity=".5"/>
  <line x1="852" y1="55" x2="866" y2="55"  stroke="#FFD700" stroke-width="2.2" opacity=".5"/>
  <line x1="843" y1="78" x2="853" y2="88"  stroke="#FFD700" stroke-width="2.2" opacity=".5"/>
  <line x1="820" y1="87" x2="820" y2="101" stroke="#FFD700" stroke-width="2.2" opacity=".5"/>
  <line x1="797" y1="78" x2="787" y2="88"  stroke="#FFD700" stroke-width="2.2" opacity=".5"/>
  <line x1="788" y1="55" x2="774" y2="55"  stroke="#FFD700" stroke-width="2.2" opacity=".5"/>
  <line x1="797" y1="32" x2="787" y2="22"  stroke="#FFD700" stroke-width="2.2" opacity=".5"/>
</g>
<circle cx="820" cy="55" r="24" fill="#FFD700"/>
<circle cx="817" cy="52" r="17" fill="#FFE848"/>

<!-- ════ TRUMP WALL ════ -->
<g clip-path="url(#wclip)">
<rect x="0" y="80" width="900" height="160" fill="url(#gwall)"/>
<!-- brick lines -->
<g stroke="#B09060" stroke-width="1.3" fill="none">
  <line x1="0" y1="100" x2="900" y2="100"/><line x1="0" y1="120" x2="900" y2="120"/>
  <line x1="0" y1="140" x2="900" y2="140"/><line x1="0" y1="160" x2="900" y2="160"/>
  <line x1="0" y1="180" x2="900" y2="180"/><line x1="0" y1="200" x2="900" y2="200"/>
  <line x1="0" y1="220" x2="900" y2="220"/>
</g>
<g stroke="#B09060" stroke-width="1.1" fill="none">
  <!-- even rows -->
  <line x1="68"  y1="80"  x2="68"  y2="100"/> <line x1="136" y1="80"  x2="136" y2="100"/>
  <line x1="204" y1="80"  x2="204" y2="100"/> <line x1="272" y1="80"  x2="272" y2="100"/>
  <line x1="340" y1="80"  x2="340" y2="100"/> <line x1="408" y1="80"  x2="408" y2="100"/>
  <line x1="476" y1="80"  x2="476" y2="100"/> <line x1="544" y1="80"  x2="544" y2="100"/>
  <line x1="612" y1="80"  x2="612" y2="100"/> <line x1="680" y1="80"  x2="680" y2="100"/>
  <line x1="748" y1="80"  x2="748" y2="100"/> <line x1="816" y1="80"  x2="816" y2="100"/>
  <!-- odd rows -->
  <line x1="34"  y1="100" x2="34"  y2="120"/> <line x1="102" y1="100" x2="102" y2="120"/>
  <line x1="170" y1="100" x2="170" y2="120"/> <line x1="238" y1="100" x2="238" y2="120"/>
  <line x1="306" y1="100" x2="306" y2="120"/> <line x1="374" y1="100" x2="374" y2="120"/>
  <line x1="442" y1="100" x2="442" y2="120"/> <line x1="510" y1="100" x2="510" y2="120"/>
  <line x1="578" y1="100" x2="578" y2="120"/> <line x1="646" y1="100" x2="646" y2="120"/>
  <line x1="714" y1="100" x2="714" y2="120"/> <line x1="782" y1="100" x2="782" y2="120"/>
  <line x1="68"  y1="120" x2="68"  y2="140"/> <line x1="136" y1="120" x2="136" y2="140"/>
  <line x1="204" y1="120" x2="204" y2="140"/> <line x1="272" y1="120" x2="272" y2="140"/>
  <line x1="340" y1="120" x2="340" y2="140"/> <line x1="408" y1="120" x2="408" y2="140"/>
  <line x1="476" y1="120" x2="476" y2="140"/> <line x1="544" y1="120" x2="544" y2="140"/>
  <line x1="612" y1="120" x2="612" y2="140"/> <line x1="680" y1="120" x2="680" y2="140"/>
  <line x1="34"  y1="140" x2="34"  y2="160"/> <line x1="102" y1="140" x2="102" y2="160"/>
  <line x1="170" y1="140" x2="170" y2="160"/> <line x1="238" y1="140" x2="238" y2="160"/>
  <line x1="306" y1="140" x2="306" y2="160"/> <line x1="374" y1="140" x2="374" y2="160"/>
  <line x1="442" y1="140" x2="442" y2="160"/> <line x1="510" y1="140" x2="510" y2="160"/>
  <line x1="68"  y1="160" x2="68"  y2="180"/> <line x1="136" y1="160" x2="136" y2="180"/>
  <line x1="204" y1="160" x2="204" y2="180"/> <line x1="272" y1="160" x2="272" y2="180"/>
  <line x1="340" y1="160" x2="340" y2="180"/> <line x1="408" y1="160" x2="408" y2="180"/>
  <line x1="34"  y1="180" x2="34"  y2="200"/> <line x1="102" y1="180" x2="102" y2="200"/>
  <line x1="170" y1="180" x2="170" y2="200"/> <line x1="238" y1="180" x2="238" y2="200"/>
</g>

<!-- scrolling signs (2 copies) -->
<g class="wsc">
  <g font-family="Impact,Arial" font-weight="bold" font-size="11">
    <rect x="22"  y="83"  width="168" height="17" fill="#BF0A30" rx="2"/>
    <rect x="22"  y="83"  width="168" height="17" fill="none" stroke="#FFD700" stroke-width="1.5" rx="2"/>
    <text x="106" y="95" fill="#FFD700" text-anchor="middle">🇺🇸 TRUMP WALL 🇺🇸</text>
    <rect x="236" y="103" width="182" height="17" fill="#001450" rx="2"/>
    <rect x="236" y="103" width="182" height="17" fill="none" stroke="#aaa" stroke-width="1.2" rx="2"/>
    <text x="327" y="115" fill="white" text-anchor="middle">MEXICO PAYS FOR IT!</text>
    <rect x="22"  y="123" width="214" height="17" fill="#003300" rx="2"/>
    <rect x="22"  y="123" width="214" height="17" fill="none" stroke="#44cc44" stroke-width="1.2" rx="2"/>
    <text x="129" y="135" fill="#55ee55" text-anchor="middle">NO ENTRY — BEAUTIFUL WALL</text>
    <rect x="462" y="83"  width="220" height="17" fill="#BF0A30" rx="2"/>
    <rect x="462" y="83"  width="220" height="17" fill="none" stroke="#FFD700" stroke-width="1.5" rx="2"/>
    <text x="572" y="95" fill="#FFD700" text-anchor="middle">MAKE GAMING GREAT AGAIN</text>
    <rect x="462" y="123" width="196" height="17" fill="#001450" rx="2"/>
    <rect x="462" y="123" width="196" height="17" fill="none" stroke="#FFD700" stroke-width="1.2" rx="2"/>
    <text x="560" y="135" fill="#FFD700" text-anchor="middle">BEST WALL EVER BUILT ★</text>
    <rect x="710" y="103" width="174" height="17" fill="#880000" rx="2"/>
    <rect x="710" y="103" width="174" height="17" fill="none" stroke="#fff" stroke-width="1.2" rx="2"/>
    <text x="797" y="115" fill="white" text-anchor="middle">YOU'RE WELCOME, MEXICO</text>
  </g>
  <g transform="translate(900,0)" font-family="Impact,Arial" font-weight="bold" font-size="11">
    <rect x="22"  y="83"  width="168" height="17" fill="#BF0A30" rx="2"/>
    <rect x="22"  y="83"  width="168" height="17" fill="none" stroke="#FFD700" stroke-width="1.5" rx="2"/>
    <text x="106" y="95" fill="#FFD700" text-anchor="middle">🇺🇸 TRUMP WALL 🇺🇸</text>
    <rect x="236" y="103" width="182" height="17" fill="#001450" rx="2"/>
    <rect x="236" y="103" width="182" height="17" fill="none" stroke="#aaa" stroke-width="1.2" rx="2"/>
    <text x="327" y="115" fill="white" text-anchor="middle">MEXICO PAYS FOR IT!</text>
    <rect x="22"  y="123" width="214" height="17" fill="#003300" rx="2"/>
    <rect x="22"  y="123" width="214" height="17" fill="none" stroke="#44cc44" stroke-width="1.2" rx="2"/>
    <text x="129" y="135" fill="#55ee55" text-anchor="middle">NO ENTRY — BEAUTIFUL WALL</text>
    <rect x="462" y="83"  width="220" height="17" fill="#BF0A30" rx="2"/>
    <rect x="462" y="83"  width="220" height="17" fill="none" stroke="#FFD700" stroke-width="1.5" rx="2"/>
    <text x="572" y="95" fill="#FFD700" text-anchor="middle">MAKE GAMING GREAT AGAIN</text>
    <rect x="462" y="123" width="196" height="17" fill="#001450" rx="2"/>
    <rect x="462" y="123" width="196" height="17" fill="none" stroke="#FFD700" stroke-width="1.2" rx="2"/>
    <text x="560" y="135" fill="#FFD700" text-anchor="middle">BEST WALL EVER BUILT ★</text>
    <rect x="710" y="103" width="174" height="17" fill="#880000" rx="2"/>
    <rect x="710" y="103" width="174" height="17" fill="none" stroke="#fff" stroke-width="1.2" rx="2"/>
    <text x="797" y="115" fill="white" text-anchor="middle">YOU'RE WELCOME, MEXICO</text>
  </g>
</g>

<!-- barbed wire -->
<g stroke="#999" stroke-width="1.3" fill="none">
  <circle cx="10"  cy="82" r="5"/> <circle cx="30"  cy="82" r="5"/> <circle cx="50"  cy="82" r="5"/>
  <circle cx="70"  cy="82" r="5"/> <circle cx="90"  cy="82" r="5"/> <circle cx="110" cy="82" r="5"/>
  <circle cx="130" cy="82" r="5"/> <circle cx="150" cy="82" r="5"/> <circle cx="170" cy="82" r="5"/>
  <circle cx="190" cy="82" r="5"/> <circle cx="210" cy="82" r="5"/> <circle cx="230" cy="82" r="5"/>
  <circle cx="250" cy="82" r="5"/> <circle cx="270" cy="82" r="5"/> <circle cx="290" cy="82" r="5"/>
  <circle cx="310" cy="82" r="5"/> <circle cx="330" cy="82" r="5"/> <circle cx="350" cy="82" r="5"/>
  <circle cx="370" cy="82" r="5"/> <circle cx="390" cy="82" r="5"/> <circle cx="410" cy="82" r="5"/>
  <circle cx="430" cy="82" r="5"/> <circle cx="450" cy="82" r="5"/> <circle cx="470" cy="82" r="5"/>
  <circle cx="490" cy="82" r="5"/> <circle cx="510" cy="82" r="5"/> <circle cx="530" cy="82" r="5"/>
  <circle cx="550" cy="82" r="5"/> <circle cx="570" cy="82" r="5"/> <circle cx="590" cy="82" r="5"/>
  <circle cx="610" cy="82" r="5"/> <circle cx="630" cy="82" r="5"/> <circle cx="650" cy="82" r="5"/>
  <circle cx="670" cy="82" r="5"/> <circle cx="690" cy="82" r="5"/> <circle cx="710" cy="82" r="5"/>
  <circle cx="730" cy="82" r="5"/> <circle cx="750" cy="82" r="5"/> <circle cx="770" cy="82" r="5"/>
  <circle cx="790" cy="82" r="5"/> <circle cx="810" cy="82" r="5"/> <circle cx="830" cy="82" r="5"/>
  <circle cx="850" cy="82" r="5"/> <circle cx="870" cy="82" r="5"/> <circle cx="890" cy="82" r="5"/>
</g>
<!-- flags -->
<rect x="160" y="80" width="3" height="52" fill="#888"/>
<rect x="163" y="80" width="26" height="5"  fill="#BF0A30"/><rect x="163" y="85"  width="26" height="5" fill="white"/>
<rect x="163" y="90" width="26" height="5"  fill="#BF0A30"/><rect x="163" y="95"  width="26" height="5" fill="white"/>
<rect x="163" y="100" width="26" height="5" fill="#BF0A30"/><rect x="163" y="105" width="26" height="5" fill="white"/>
<rect x="163" y="80" width="11" height="14" fill="#002868"/>
<text x="164" y="91" font-family="Arial" font-size="5" fill="white">★★</text>
<rect x="560" y="80" width="3" height="52" fill="#888"/>
<rect x="563" y="80" width="26" height="5"  fill="#BF0A30"/><rect x="563" y="85"  width="26" height="5" fill="white"/>
<rect x="563" y="90" width="26" height="5"  fill="#BF0A30"/><rect x="563" y="95"  width="26" height="5" fill="white"/>
<rect x="563" y="100" width="26" height="5" fill="#BF0A30"/><rect x="563" y="105" width="26" height="5" fill="white"/>
<rect x="563" y="80" width="11" height="14" fill="#002868"/>
<text x="564" y="91" font-family="Arial" font-size="5" fill="white">★★</text>
</g><!-- end wall clip -->

<!-- GROUND -->
<rect x="0" y="244" width="900" height="68" fill="url(#ggnd)"/>
<line x1="0" y1="245" x2="900" y2="245" stroke="#FFD700" stroke-width="2.5"/>
<line x1="0" y1="260" x2="900" y2="260" stroke="rgba(255,215,0,.08)" stroke-width="1"/>
<line x1="0" y1="278" x2="900" y2="278" stroke="rgba(255,215,0,.08)" stroke-width="1"/>

<!-- HUD bar -->
<rect x="0" y="48" width="900" height="20" fill="rgba(0,0,30,.6)"/>
<text x="12" y="62" font-family="Impact,Arial" font-size="10" fill="rgba(255,255,255,.45)">SCORE:</text>
<text class="scfl" x="65" y="62" font-family="Impact,Arial" font-size="11" font-weight="bold">1,337</text>
<text x="450" y="62" font-family="Impact,Arial" font-size="10" text-anchor="middle" fill="#FFD700" opacity=".7">💵 COLLECT DOLLARS  •  🚀 BLAST BIDEN  •  🍔 BIG MAC = EXTRA LIFE</text>
<text x="888" y="62" font-family="Impact,Arial" font-size="10" text-anchor="end" fill="#BF0A30">❤❤❤</text>

<!-- ═══════════════ TRUMP (exact game coords: x=80, y=GY-PH=214, PW=40, PH=66, GY=280) -->
<!-- shadow -->
<ellipse cx="100" cy="247" rx="27" ry="5" fill="rgba(0,0,0,.2)"/>
<!-- left leg -->
<g class="tll"><rect x="86" y="240" width="12" height="21" fill="#001a6e" rx="2"/><rect x="83" y="257" width="16" height="7" fill="#111" rx="2"/></g>
<!-- right leg -->
<g class="tlr"><rect x="102" y="240" width="12" height="21" fill="#001a6e" rx="2"/><rect x="100" y="257" width="16" height="7" fill="#111" rx="2"/></g>
<!-- suit body -->
<rect x="83" y="214" width="34" height="28" fill="#002268" rx="2"/>
<!-- lapels -->
<rect x="83" y="214" width="10" height="18" fill="#0030a8" rx="1"/>
<rect x="107" y="214" width="10" height="18" fill="#0030a8" rx="1"/>
<!-- shirt -->
<rect x="93" y="214" width="14" height="26" fill="white"/>
<!-- red tie WAY too long -->
<polygon points="96,215 104,215 108,234 100,258 92,234" fill="#CC0000"/>
<polygon points="97,216 103,216 106,233 100,233" fill="#FF3333" opacity=".6"/>
<!-- left arm -->
<rect x="72" y="216" width="12" height="18" fill="#002268" rx="2"/>
<rect x="70" y="232" width="10" height="6" fill="#F4A038" rx="2"/>
<!-- right arm (fires) -->
<g class="tarm">
  <rect x="117" y="216" width="22" height="9" fill="#002268" rx="2"/>
  <rect x="137" y="215" width="9" height="7" fill="#F4A038" rx="2"/>
  <rect x="144" y="213" width="6" height="5" fill="#F4A038" rx="1"/>
</g>
<!-- face orange -->
<rect x="84" y="190" width="32" height="26" fill="#F4A038" rx="2"/>
<!-- tan goggle strip -->
<rect x="86" y="192" width="28" height="11" fill="#F8D0A0" rx="2"/>
<!-- eyes -->
<rect x="87" y="194" width="8" height="5" fill="#18183A" rx="1"/>
<rect x="99" y="194" width="8" height="5" fill="#18183A" rx="1"/>
<rect x="88" y="195" width="4" height="3" fill="#4455AA" rx="1"/>
<rect x="100" y="195" width="4" height="3" fill="#4455AA" rx="1"/>
<!-- eyebrows -->
<rect x="86" y="192" width="10" height="2" fill="#C08018" rx="1"/>
<rect x="98" y="192" width="10" height="2" fill="#C08018" rx="1"/>
<!-- mouth -->
<rect x="88" y="208" width="24" height="5" fill="#BB7744" rx="2"/>
<rect x="89" y="209" width="22" height="2" fill="#996633" rx="1"/>
<!-- golden combover -->
<rect x="82" y="181" width="30" height="10" fill="#FFD700" rx="2"/>
<path d="M80,188 Q100,172 120,182 Q123,175 121,188" fill="#FFD700"/>
<path d="M83,185 Q100,174 118,183" stroke="#FFEE70" stroke-width="2.3" fill="none" stroke-linecap="round"/>
<!-- MAGA hat -->
<g class="hat">
  <rect x="82" y="172" width="34" height="11" fill="#BF0A30" rx="2"/>
  <rect x="81" y="181" width="36" height="3"  fill="#9a0820" rx="1"/>
  <rect x="76" y="183" width="46" height="4"  fill="#7a0015" rx="1"/>
  <text x="99" y="181" font-family="Impact,Arial" font-size="6" fill="white" text-anchor="middle">MAGA</text>
</g>

<!-- ═══════════════ ROCKET (starts at hand x=168,y=218) -->
<g class="rkt">
  <!-- exhaust glow -->
  <ellipse cx="-8" cy="0" rx="10" ry="5" fill="rgba(255,110,0,.4)"/>
  <!-- body -->
  <rect x="0" y="-5" width="34" height="10" fill="#cccccc" rx="3"/>
  <!-- nose -->
  <polygon points="34,-5 47,0 34,5" fill="#CC1111"/>
  <!-- fins -->
  <polygon points="3,-5 -7,-13 5,0" fill="#CC1111"/>
  <polygon points="3,5 -7,13 5,0" fill="#CC1111"/>
  <!-- flag stripes -->
  <rect x="10" y="-4" width="15" height="2" fill="#BF0A30"/>
  <rect x="10" y="-2" width="15" height="2" fill="white"/>
  <rect x="10" y="0"  width="15" height="2" fill="#BF0A30"/>
  <rect x="10" y="2"  width="15" height="2" fill="white"/>
  <rect x="10" y="-4" width="6"  height="8" fill="#002868"/>
  <!-- exhaust flame -->
  <polygon points="0,-4 -14,0 0,4" fill="#FF6600" opacity=".95"/>
  <polygon points="0,-2 -8,0 0,2" fill="#FFaa00"/>
</g>

<!-- ═══════════════ EXPLOSION at Biden chest (380, 218) -->
<g transform="translate(380,218)">
  <g class="expl">
    <circle r="36" fill="url(#gexpl)"/>
    <line x1="0" y1="-26" x2="0" y2="-44" stroke="#FF8800" stroke-width="3"/>
    <line x1="26" y1="-10" x2="40" y2="-18" stroke="#FF8800" stroke-width="3"/>
    <line x1="26" y1="10"  x2="40" y2="18"  stroke="#FF8800" stroke-width="3"/>
    <line x1="0"  y1="26"  x2="0"  y2="44"  stroke="#FF8800" stroke-width="3"/>
    <line x1="-26" y1="10" x2="-40" y2="18" stroke="#FF8800" stroke-width="3"/>
    <line x1="-26" y1="-10" x2="-40" y2="-18" stroke="#FF8800" stroke-width="3"/>
  </g>
</g>

<!-- ═══════════════ DOLLAR BILLS -->
<g class="d1">
  <rect x="-13" y="-8" width="28" height="16" fill="#145214" rx="2"/>
  <rect x="-11" y="-6" width="24" height="12" fill="#1c8c1c" rx="1"/>
  <text x="0" y="5" font-family="Impact,Arial" font-size="13" fill="#FFD700" text-anchor="middle" font-weight="bold">$</text>
  <rect x="-13" y="-8" width="28" height="16" fill="none" stroke="#00aa00" stroke-width="1" rx="2"/>
</g>
<g class="d2">
  <rect x="-13" y="-8" width="28" height="16" fill="#145214" rx="2"/>
  <rect x="-11" y="-6" width="24" height="12" fill="#1c8c1c" rx="1"/>
  <text x="0" y="5" font-family="Impact,Arial" font-size="13" fill="#FFD700" text-anchor="middle" font-weight="bold">$</text>
  <rect x="-13" y="-8" width="28" height="16" fill="none" stroke="#00aa00" stroke-width="1" rx="2"/>
</g>
<g class="d3">
  <rect x="-13" y="-8" width="28" height="16" fill="#145214" rx="2"/>
  <rect x="-11" y="-6" width="24" height="12" fill="#1c8c1c" rx="1"/>
  <text x="0" y="5" font-family="Impact,Arial" font-size="13" fill="#FFD700" text-anchor="middle" font-weight="bold">$</text>
  <rect x="-13" y="-8" width="28" height="16" fill="none" stroke="#00aa00" stroke-width="1" rx="2"/>
</g>

<!-- ═══════════════ BIDEN (game coords: drawn at local x=0,y=0, group animated) -->
<!-- EXACT same shapes as game drawEnemy: w=38,h=60, suit=#002868, glass=true -->
<g class="bgrp">
  <!-- shadow -->
  <ellipse cx="19" cy="247" rx="22" ry="4" fill="rgba(0,0,0,.18)"/>
  <!-- left leg -->
  <g class="bll"><rect x="5"  y="220" width="11" height="22" fill="#002868" rx="2"/><rect x="3"  y="238" width="15" height="7" fill="#111" rx="2"/></g>
  <!-- right leg -->
  <g class="blr"><rect x="22" y="220" width="11" height="22" fill="#002868" rx="2"/><rect x="20" y="238" width="15" height="7" fill="#111" rx="2"/></g>
  <!-- suit body -->
  <rect x="3" y="196" width="32" height="26" fill="#002868" rx="2"/>
  <!-- lapels -->
  <rect x="3" y="196" width="9"  height="17" fill="#2244bb" rx="1"/>
  <rect x="26" y="196" width="9" height="17" fill="#2244bb" rx="1"/>
  <!-- shirt -->
  <rect x="12" y="196" width="14" height="24" fill="white"/>
  <!-- blue tie -->
  <polygon points="14,197 22,197 24,211 19,220 13,211" fill="#3388dd"/>
  <!-- pointing left arm -->
  <rect x="-12" y="200" width="17" height="9" fill="#002868" rx="2"/>
  <rect x="-15" y="200" width="8"  height="7" fill="#f0e8d8" rx="2"/>
  <rect x="-21" y="198" width="8"  height="5" fill="#f0e8d8" rx="1"/>
  <!-- right arm down -->
  <rect x="33" y="199" width="10" height="19" fill="#002868" rx="2"/>
  <rect x="35" y="216" width="8"  height="6"  fill="#f0e8d8" rx="2"/>
  <!-- face -->
  <rect x="4" y="174" width="30" height="24" fill="#f0e8d8" rx="3"/>
  <!-- AVIATOR SUNGLASSES (exact game style) -->
  <rect x="4" y="179" width="30" height="10" fill="rgba(80,160,255,.65)" rx="2"/>
  <rect x="4" y="179" width="14" height="10" fill="none" stroke="#666" stroke-width="1.8" rx="2"/>
  <rect x="20" y="179" width="14" height="10" fill="none" stroke="#666" stroke-width="1.8" rx="2"/>
  <line x1="18" y1="184" x2="20" y2="184" stroke="#666" stroke-width="1.4"/>
  <!-- lens glare -->
  <rect x="5" y="180" width="5" height="3" fill="rgba(255,255,255,.28)" rx="1"/>
  <rect x="21" y="180" width="5" height="3" fill="rgba(255,255,255,.28)" rx="1"/>
  <!-- big grin teeth -->
  <rect x="6" y="189" width="26" height="7" fill="white" rx="2"/>
  <line x1="11" y1="189" x2="11" y2="196" stroke="#ddd" stroke-width=".8"/>
  <line x1="15" y1="189" x2="15" y2="196" stroke="#ddd" stroke-width=".8"/>
  <line x1="19" y1="189" x2="19" y2="196" stroke="#ddd" stroke-width=".8"/>
  <line x1="23" y1="189" x2="23" y2="196" stroke="#ddd" stroke-width=".8"/>
  <!-- eyebrows -->
  <rect x="5"  y="177" width="11" height="2" fill="#c0b090" rx="1"/>
  <rect x="22" y="177" width="11" height="2" fill="#c0b090" rx="1"/>
  <!-- sparse hair tufts (Biden) -->
  <rect x="5"  y="172" width="8" height="5" fill="#dddddd" rx="2"/>
  <rect x="25" y="172" width="8" height="5" fill="#dddddd" rx="2"/>
</g>

<!-- pop texts -->
<g class="pcmn" transform="translate(342,185)">
  <rect x="0" y="0" width="106" height="18" fill="rgba(0,0,70,.85)" rx="3"/>
  <rect x="0" y="0" width="106" height="18" fill="none" stroke="#FFD700" stroke-width="1.5" rx="3"/>
  <text x="53" y="13" font-family="Impact,Arial" font-size="12" fill="#FFD700" text-anchor="middle">C'MON MAN!</text>
</g>
<g class="pwin" transform="translate(62,170)">
  <rect x="0" y="0" width="104" height="18" fill="rgba(0,70,0,.85)" rx="3"/>
  <rect x="0" y="0" width="104" height="18" fill="none" stroke="#00ff55" stroke-width="1.5" rx="3"/>
  <text x="52" y="13" font-family="Impact,Arial" font-size="12" fill="#00ff55" text-anchor="middle">WINNING! +$5</text>
</g>

</g><!-- end scene clip -->

<!-- ══════════════════════════════════════ FOOTER / PLAY BUTTON -->
<rect x="0" y="312" width="900" height="88" fill="#040110"/>
<line x1="0" y1="313" x2="900" y2="313" stroke="#FFD700" stroke-width="1.5"/>

<text x="26"  y="365" font-family="Arial" font-size="20">🇺🇸</text>
<text x="852" y="365" font-family="Arial" font-size="20">🇺🇸</text>

<a href="https://elgran666.github.io/super-run-game/" target="_blank">
  <g class="pbtn">
    <rect x="275" y="326" width="350" height="58" fill="url(#gbtn)" rx="6"/>
    <rect x="275" y="326" width="350" height="58" fill="none" stroke="#FFD700" stroke-width="2.5" rx="6"/>
    <rect x="278" y="329" width="344" height="24" fill="rgba(255,255,255,.06)" rx="5"/>
    <!-- shadow -->
    <text x="452" y="364" font-family="Impact,Arial Black,Arial" font-size="24" font-weight="bold"
      text-anchor="middle" letter-spacing="2" fill="#3a0000">▶  PLAY NOW — IT'S HUGE</text>
    <!-- main -->
    <text x="450" y="362" font-family="Impact,Arial Black,Arial" font-size="24" font-weight="bold"
      text-anchor="middle" letter-spacing="2" fill="#FFD700">▶  PLAY NOW — IT'S HUGE</text>
  </g>
</a>

<text x="450" y="391" font-family="Impact,Arial" font-size="9" text-anchor="middle"
  letter-spacing="3" fill="rgba(255,215,0,.45)">JUMP • SHOOT ROCKETS • COLLECT DOLLARS • BLAST BIDEN</text>

</svg>
