<svg xmlns="http://www.w3.org/2000/svg" viewBox="0 0 800 200">
  <defs>
    <style>
      /* Trump running animation */
      @keyframes runBounce {
        0%, 100% { transform: translateY(0); }
        50% { transform: translateY(-4px); }
      }
      
      @keyframes legSwing1 {
        0%, 100% { transform: rotate(-25deg); }
        50% { transform: rotate(25deg); }
      }
      
      @keyframes legSwing2 {
        0%, 100% { transform: rotate(25deg); }
        50% { transform: rotate(-25deg); }
      }
      
      @keyframes armPump1 {
        0%, 100% { transform: rotate(30deg); }
        50% { transform: rotate(-30deg); }
      }
      
      @keyframes armPump2 {
        0%, 100% { transform: rotate(-30deg); }
        50% { transform: rotate(30deg); }
      }
      
      @keyframes hairFlow {
        0%, 100% { transform: skewX(0deg) translateX(0); }
        25% { transform: skewX(-8deg) translateX(2px); }
        75% { transform: skewX(8deg) translateX(-2px); }
      }
      
      @keyframes tieFlow {
        0%, 100% { transform: rotate(-5deg); }
        50% { transform: rotate(15deg); }
      }
      
      /* Money flying in and getting collected */
      @keyframes moneyFly {
        0% { transform: translateX(700px) translateY(0) rotate(0deg); opacity: 1; }
        70% { transform: translateX(150px) translateY(-10px) rotate(360deg); opacity: 1; }
        85% { transform: translateX(100px) translateY(-5px) rotate(540deg); opacity: 1; }
        95% { transform: translateX(80px) translateY(20px) rotate(700deg); opacity: 0.5; }
        100% { transform: translateX(70px) translateY(30px) rotate(720deg); opacity: 0; }
      }
      
      @keyframes moneyFly2 {
        0% { transform: translateX(750px) translateY(0) rotate(0deg); opacity: 1; }
        70% { transform: translateX(150px) translateY(5px) rotate(-360deg); opacity: 1; }
        85% { transform: translateX(100px) translateY(0) rotate(-540deg); opacity: 1; }
        95% { transform: translateX(80px) translateY(25px) rotate(-700deg); opacity: 0.5; }
        100% { transform: translateX(70px) translateY(35px) rotate(-720deg); opacity: 0; }
      }
      
      @keyframes collectBurst {
        0%, 70% { transform: scale(0); opacity: 0; }
        80% { transform: scale(1.5); opacity: 1; }
        100% { transform: scale(2); opacity: 0; }
      }
      
      /* Biden walks in, gets shot, flies back */
      @keyframes bidenWalk {
        0% { transform: translateX(800px); opacity: 1; }
        50% { transform: translateX(250px); opacity: 1; }
        55% { transform: translateX(250px) rotate(-10deg); opacity: 1; }
        70% { transform: translateX(350px) translateY(-50px) rotate(-45deg); opacity: 0.7; }
        85% { transform: translateX(500px) translateY(-20px) rotate(-90deg); opacity: 0.3; }
        100% { transform: translateX(700px) translateY(50px) rotate(-180deg); opacity: 0; }
      }
      
      @keyframes bidenWalk2 {
        0% { transform: translateX(900px); opacity: 1; }
        50% { transform: translateX(250px); opacity: 1; }
        55% { transform: translateX(250px) rotate(-10deg); opacity: 1; }
        70% { transform: translateX(350px) translateY(-50px) rotate(-45deg); opacity: 0.7; }
        85% { transform: translateX(500px) translateY(-20px) rotate(-90deg); opacity: 0.3; }
        100% { transform: translateX(700px) translateY(50px) rotate(-180deg); opacity: 0; }
      }
      
      @keyframes bidenShuffle {
        0%, 50%, 100% { transform: translateY(0); }
        25%, 75% { transform: translateY(-3px); }
      }
      
      /* Shooting effect */
      @keyframes shootFlash {
        0%, 45%, 60%, 100% { opacity: 0; transform: translateX(0) scaleX(0); }
        50%, 55% { opacity: 1; transform: translateX(40px) scaleX(1); }
      }
      
      @keyframes gunKick {
        0%, 45%, 60%, 100% { transform: rotate(0deg); }
        50% { transform: rotate(-15deg); }
        55% { transform: rotate(5deg); }
      }
      
      @keyframes muzzleFlash {
        0%, 48%, 58%, 100% { opacity: 0; transform: scale(0); }
        50%, 52% { opacity: 1; transform: scale(1); }
        54%, 56% { opacity: 0.5; transform: scale(1.5); }
      }
      
      /* Hit effect on Biden */
      @keyframes hitStars {
        0%, 48%, 70%, 100% { opacity: 0; }
        52%, 65% { opacity: 1; }
      }
      
      /* Background scrolling */
      @keyframes cloudMove {
        0% { transform: translateX(0); }
        100% { transform: translateX(-900px); }
      }
      
      @keyframes hillMove {
        0% { transform: translateX(0); }
        100% { transform: translateX(-500px); }
      }
      
      @keyframes groundMove {
        0% { transform: translateX(0); }
        100% { transform: translateX(-100px); }
      }
      
      @keyframes scorePopup {
        0%, 70%, 100% { opacity: 0; transform: translateY(0) scale(0.5); }
        75% { opacity: 1; transform: translateY(-10px) scale(1.2); }
        90% { opacity: 1; transform: translateY(-25px) scale(1); }
        98% { opacity: 0; transform: translateY(-35px) scale(0.8); }
      }
      
      /* Apply animations */
      .trump-body { animation: runBounce 0.2s ease-in-out infinite; }
      .trump-leg1 { animation: legSwing1 0.2s ease-in-out infinite; transform-origin: 50% 0%; }
      .trump-leg2 { animation: legSwing2 0.2s ease-in-out infinite; transform-origin: 50% 0%; }
      .trump-arm1 { animation: armPump1 0.2s ease-in-out infinite; transform-origin: 50% 0%; }
      .trump-arm2 { animation: armPump2 0.2s ease-in-out infinite; transform-origin: 50% 0%; }
      .trump-hair { animation: hairFlow 0.2s ease-in-out infinite; }
      .trump-tie { animation: tieFlow 0.2s ease-in-out infinite; transform-origin: 50% 0%; }
      .trump-gun { animation: gunKick 5s ease-in-out infinite; transform-origin: 0% 50%; }
      
      .money1 { animation: moneyFly 5s linear infinite; }
      .money2 { animation: moneyFly2 5s linear infinite 2.5s; }
      .collect-burst1 { animation: collectBurst 5s ease-out infinite; }
      .collect-burst2 { animation: collectBurst 5s ease-out infinite 2.5s; }
      
      .biden1 { animation: bidenWalk 5s ease-in-out infinite; }
      .biden2 { animation: bidenWalk2 5s ease-in-out infinite 2.5s; }
      .biden-body { animation: bidenShuffle 0.25s ease-in-out infinite; }
      
      .shoot-line { animation: shootFlash 5s ease-out infinite; }
      .muzzle-flash { animation: muzzleFlash 5s ease-out infinite; }
      .hit-stars { animation: hitStars 5s ease-out infinite; }
      
      .cloud1 { animation: cloudMove 25s linear infinite; }
      .cloud2 { animation: cloudMove 35s linear infinite 10s; }
      .hill-scroll { animation: hillMove 15s linear infinite; }
      .ground-scroll { animation: groundMove 0.5s linear infinite; }
      
      .score-pop { animation: scorePopup 5s ease-out infinite; }
      .score-pop2 { animation: scorePopup 5s ease-out infinite 2.5s; }
    </style>
    
    <!-- Gradients -->
    <linearGradient id="sky" x1="0%" y1="0%" x2="0%" y2="100%">
      <stop offset="0%" style="stop-color:#5c94fc"/>
      <stop offset="100%" style="stop-color:#87CEEB"/>
    </linearGradient>
    
    <radialGradient id="muzzleGrad" cx="50%" cy="50%" r="50%">
      <stop offset="0%" style="stop-color:#fff"/>
      <stop offset="40%" style="stop-color:#ffff00"/>
      <stop offset="100%" style="stop-color:#ff6600;stop-opacity:0"/>
    </radialGradient>
  </defs>
  
  <!-- Sky -->
  <rect width="800" height="200" fill="url(#sky)"/>
  
  <!-- Clouds -->
  <g class="cloud1">
    <ellipse cx="100" cy="40" rx="35" ry="18" fill="white" opacity="0.9"/>
    <ellipse cx="130" cy="35" rx="28" ry="15" fill="white" opacity="0.9"/>
    <ellipse cx="70" cy="42" rx="25" ry="13" fill="white" opacity="0.9"/>
    <ellipse cx="500" cy="50" rx="30" ry="16" fill="white" opacity="0.85"/>
    <ellipse cx="525" cy="45" rx="24" ry="13" fill="white" opacity="0.85"/>
  </g>
  <g class="cloud2">
    <ellipse cx="300" cy="35" rx="40" ry="20" fill="white" opacity="0.85"/>
    <ellipse cx="335" cy="30" rx="30" ry="16" fill="white" opacity="0.85"/>
    <ellipse cx="265" cy="38" rx="28" ry="14" fill="white" opacity="0.85"/>
    <ellipse cx="700" cy="55" rx="28" ry="14" fill="white" opacity="0.9"/>
    <ellipse cx="722" cy="50" rx="22" ry="12" fill="white" opacity="0.9"/>
  </g>
  
  <!-- Hills -->
  <g class="hill-scroll">
    <ellipse cx="150" cy="160" rx="180" ry="50" fill="#5a9c4a"/>
    <ellipse cx="450" cy="160" rx="200" ry="55" fill="#4a8c3a"/>
    <ellipse cx="750" cy="160" rx="170" ry="45" fill="#5a9c4a"/>
    <ellipse cx="1050" cy="160" rx="190" ry="52" fill="#4a8c3a"/>
  </g>
  
  <!-- Ground -->
  <rect x="0" y="152" width="800" height="48" fill="#8B4513"/>
  <rect x="0" y="152" width="800" height="5" fill="#a05a2c"/>
  
  <!-- Ground bricks scrolling -->
  <g class="ground-scroll">
    <g fill="#734012" stroke="#5c330e" stroke-width="0.5">
      <rect x="0" y="157" width="49" height="20"/>
      <rect x="50" y="157" width="49" height="20"/>
      <rect x="100" y="157" width="49" height="20"/>
      <rect x="150" y="157" width="49" height="20"/>
      <rect x="200" y="157" width="49" height="20"/>
      <rect x="250" y="157" width="49" height="20"/>
      <rect x="300" y="157" width="49" height="20"/>
      <rect x="350" y="157" width="49" height="20"/>
      <rect x="400" y="157" width="49" height="20"/>
      <rect x="450" y="157" width="49" height="20"/>
      <rect x="500" y="157" width="49" height="20"/>
      <rect x="550" y="157" width="49" height="20"/>
      <rect x="600" y="157" width="49" height="20"/>
      <rect x="650" y="157" width="49" height="20"/>
      <rect x="700" y="157" width="49" height="20"/>
      <rect x="750" y="157" width="49" height="20"/>
      <rect x="800" y="157" width="49" height="20"/>
      <rect x="850" y="157" width="49" height="20"/>
      <rect x="-25" y="177" width="49" height="20"/>
      <rect x="25" y="177" width="49" height="20"/>
      <rect x="75" y="177" width="49" height="20"/>
      <rect x="125" y="177" width="49" height="20"/>
      <rect x="175" y="177" width="49" height="20"/>
      <rect x="225" y="177" width="49" height="20"/>
      <rect x="275" y="177" width="49" height="20"/>
      <rect x="325" y="177" width="49" height="20"/>
      <rect x="375" y="177" width="49" height="20"/>
      <rect x="425" y="177" width="49" height="20"/>
      <rect x="475" y="177" width="49" height="20"/>
      <rect x="525" y="177" width="49" height="20"/>
      <rect x="575" y="177" width="49" height="20"/>
      <rect x="625" y="177" width="49" height="20"/>
      <rect x="675" y="177" width="49" height="20"/>
      <rect x="725" y="177" width="49" height="20"/>
      <rect x="775" y="177" width="49" height="20"/>
      <rect x="825" y="177" width="49" height="20"/>
    </g>
  </g>
  
  <!-- Score HUD -->
  <rect x="12" y="10" width="135" height="34" rx="6" fill="rgba(0,0,0,0.8)"/>
  <text x="22" y="33" font-family="Arial Black, sans-serif" font-size="17" fill="#FFD700">$ 2,847,000</text>
  
  <!-- TRUMP CHARACTER - Running on ground -->
  <g transform="translate(100, 82)">
    <g class="trump-body">
      <!-- Shadow -->
      <ellipse cx="22" cy="72" rx="22" ry="6" fill="rgba(0,0,0,0.3)"/>
      
      <!-- Back leg -->
      <g class="trump-leg2" transform="translate(28, 48)">
        <rect x="-5" y="0" width="11" height="20" rx="2" fill="#1a1a2e"/>
        <rect x="-7" y="18" width="15" height="7" rx="2" fill="#222"/>
      </g>
      
      <!-- Back arm -->
      <g class="trump-arm2" transform="translate(8, 26)">
        <rect x="-4" y="0" width="10" height="24" rx="4" fill="#1a1a2e"/>
        <circle cx="1" cy="24" r="5" fill="#FFCC99"/>
      </g>
      
      <!-- Body -->
      <rect x="5" y="24" width="34" height="28" rx="4" fill="#1a1a2e"/>
      <rect x="17" y="24" width="10" height="24" fill="white"/>
      
      <!-- Tie -->
      <g class="trump-tie">
        <polygon points="22,26 17,52 22,58 27,52" fill="#cc0000"/>
        <rect x="18" y="24" width="8" height="5" rx="1" fill="#cc0000"/>
      </g>
      
      <!-- Front leg -->
      <g class="trump-leg1" transform="translate(14, 48)">
        <rect x="-5" y="0" width="11" height="20" rx="2" fill="#1a1a2e"/>
        <rect x="-7" y="18" width="15" height="7" rx="2" fill="#222"/>
      </g>
      
      <!-- Front arm with gun -->
      <g class="trump-arm1" transform="translate(34, 26)">
        <rect x="-4" y="0" width="10" height="24" rx="4" fill="#1a1a2e"/>
        <circle cx="1" cy="24" r="5" fill="#FFCC99"/>
        <!-- Gun -->
        <g class="trump-gun" transform="translate(3, 18)">
          <rect x="0" y="-3" width="25" height="8" rx="1" fill="#333"/>
          <rect x="20" y="-5" width="8" height="12" rx="1" fill="#444"/>
          <rect x="0" y="2" width="8" height="5" fill="#222"/>
        </g>
      </g>
      
      <!-- Head -->
      <ellipse cx="22" cy="12" rx="16" ry="18" fill="#FFCC99"/>
      <ellipse cx="5" cy="12" rx="4" ry="6" fill="#FFCC99"/>
      <ellipse cx="39" cy="12" rx="4" ry="6" fill="#FFCC99"/>
      
      <!-- Hair -->
      <g class="trump-hair">
        <path d="M6,8 Q10,-4 22,-2 Q34,-4 38,8 Q42,0 34,-6 Q22,-10 10,-6 Q2,0 6,8" fill="#FFD700"/>
        <ellipse cx="32" cy="2" rx="10" ry="6" fill="#FFD700"/>
        <ellipse cx="12" cy="2" rx="9" ry="5" fill="#FFDB4D"/>
        <path d="M10,6 Q16,0 22,2 Q28,0 34,6" fill="#FFC500" opacity="0.6"/>
      </g>
      
      <!-- Face -->
      <ellipse cx="15" cy="12" rx="5" ry="3.5" fill="white"/>
      <ellipse cx="29" cy="12" rx="5" ry="3.5" fill="white"/>
      <circle cx="16" cy="12" r="2.5" fill="#4a90c2"/>
      <circle cx="30" cy="12" r="2.5" fill="#4a90c2"/>
      <circle cx="16.8" cy="11" r="1" fill="white"/>
      <circle cx="30.8" cy="11" r="1" fill="white"/>
      
      <!-- Determined eyebrows -->
      <path d="M10 7 Q15 4 20 8" stroke="#b8860b" stroke-width="3" fill="none" stroke-linecap="round"/>
      <path d="M24 8 Q29 4 34 7" stroke="#b8860b" stroke-width="3" fill="none" stroke-linecap="round"/>
      
      <!-- Nose -->
      <ellipse cx="22" cy="18" rx="4" ry="2.5" fill="#f0b090"/>
      
      <!-- Confident grin -->
      <path d="M15 24 Q22 30 29 24" stroke="#cc8080" stroke-width="2.5" fill="none" stroke-linecap="round"/>
      <path d="M17 25 Q22 28 27 25" fill="white"/>
    </g>
    
    <!-- Muzzle flash -->
    <g class="muzzle-flash" transform="translate(62, 46)">
      <circle cx="0" cy="0" r="15" fill="url(#muzzleGrad)"/>
      <polygon points="0,-8 3,0 0,8 12,0" fill="#ffff00"/>
    </g>
    
    <!-- Shooting line -->
    <g class="shoot-line" transform="translate(65, 46)">
      <line x1="0" y1="0" x2="180" y2="0" stroke="#ffff00" stroke-width="3" opacity="0.8"/>
      <line x1="0" y1="0" x2="180" y2="0" stroke="white" stroke-width="1"/>
    </g>
  </g>
  
  <!-- Score popup when collecting money -->
  <g class="score-pop" transform="translate(130, 60)">
    <text font-family="Arial Black" font-size="16" fill="#00ff00" stroke="#000" stroke-width="1">+$100K</text>
  </g>
  <g class="score-pop2" transform="translate(130, 80)">
    <text font-family="Arial Black" font-size="16" fill="#00ff00" stroke="#000" stroke-width="1">+$100K</text>
  </g>
  
  <!-- Money collection burst effect -->
  <g class="collect-burst1" transform="translate(115, 95)">
    <circle r="20" fill="none" stroke="#FFD700" stroke-width="3"/>
    <circle r="12" fill="none" stroke="#fff" stroke-width="2"/>
  </g>
  <g class="collect-burst2" transform="translate(115, 115)">
    <circle r="20" fill="none" stroke="#FFD700" stroke-width="3"/>
    <circle r="12" fill="none" stroke="#fff" stroke-width="2"/>
  </g>
  
  <!-- MONEY BILLS -->
  <g class="money1" transform="translate(0, 75)">
    <rect x="0" y="0" width="36" height="22" rx="2" fill="#85bb65" stroke="#2d5016" stroke-width="1.5"/>
    <rect x="4" y="4" width="28" height="14" fill="#6aaa4a"/>
    <circle cx="18" cy="11" r="7" fill="#85bb65" stroke="#4a8a3a" stroke-width="1"/>
    <text x="13" y="15" font-family="Arial Black" font-size="12" fill="#2d5016">$</text>
  </g>
  
  <g class="money2" transform="translate(0, 105)">
    <rect x="0" y="0" width="36" height="22" rx="2" fill="#85bb65" stroke="#2d5016" stroke-width="1.5"/>
    <rect x="4" y="4" width="28" height="14" fill="#6aaa4a"/>
    <circle cx="18" cy="11" r="7" fill="#85bb65" stroke="#4a8a3a" stroke-width="1"/>
    <text x="13" y="15" font-family="Arial Black" font-size="12" fill="#2d5016">$</text>
  </g>
  
  <!-- BIDEN ENEMIES - walk in and get shot -->
  <g class="biden1">
    <g class="biden-body" transform="translate(0, 85)">
      <!-- Shadow -->
      <ellipse cx="22" cy="68" rx="18" ry="5" fill="rgba(0,0,0,0.25)"/>
      
      <!-- Body -->
      <rect x="6" y="25" width="32" height="30" rx="4" fill="#2c3e50"/>
      <rect x="17" y="25" width="10" height="24" fill="white"/>
      <polygon points="22,27 17,50 22,56 27,50" fill="#3498db"/>
      
      <!-- Legs -->
      <rect x="10" y="52" width="10" height="15" fill="#2c3e50"/>
      <rect x="24" y="52" width="10" height="15" fill="#2c3e50"/>
      <rect x="8" y="65" width="13" height="6" rx="2" fill="#1a1a1a"/>
      <rect x="23" y="65" width="13" height="6" rx="2" fill="#1a1a1a"/>
      
      <!-- Head -->
      <ellipse cx="22" cy="14" rx="16" ry="18" fill="#FFCC99"/>
      
      <!-- White hair -->
      <ellipse cx="22" cy="2" rx="15" ry="10" fill="#e8e8e8"/>
      <ellipse cx="10" cy="4" rx="8" ry="6" fill="#f5f5f5"/>
      <ellipse cx="34" cy="4" rx="8" ry="6" fill="#f5f5f5"/>
      
      <!-- Aviators -->
      <ellipse cx="14" cy="13" rx="8" ry="7" fill="#1a1a1a"/>
      <ellipse cx="30" cy="13" rx="8" ry="7" fill="#1a1a1a"/>
      <rect x="21" y="11" width="2" height="4" fill="#1a1a1a"/>
      <line x1="6" y1="12" x2="-2" y2="8" stroke="#1a1a1a" stroke-width="2.5"/>
      <line x1="38" y1="12" x2="46" y2="8" stroke="#1a1a1a" stroke-width="2.5"/>
      <ellipse cx="12" cy="11" rx="3" ry="2" fill="#333" opacity="0.5"/>
      <ellipse cx="28" cy="11" rx="3" ry="2" fill="#333" opacity="0.5"/>
      
      <!-- Confused expression -->
      <path d="M16 28 Q22 24 28 28" stroke="#bb9999" stroke-width="2.5" fill="none"/>
      
      <!-- Zzz -->
      <text x="44" y="-2" font-family="Comic Sans MS, cursive" font-size="13" fill="#555" font-weight="bold">z</text>
      <text x="53" y="-10" font-family="Comic Sans MS, cursive" font-size="10" fill="#777" font-weight="bold">z</text>
      <text x="60" y="-16" font-family="Comic Sans MS, cursive" font-size="8" fill="#999" font-weight="bold">z</text>
    </g>
    
    <!-- Hit effect stars -->
    <g class="hit-stars" transform="translate(250, 100)">
      <polygon points="0,-12 3,-4 12,-4 5,2 8,12 0,6 -8,12 -5,2 -12,-4 -3,-4" fill="#ffff00" stroke="#ff6600" stroke-width="1"/>
      <polygon points="20,-8 22,-3 27,-3 23,0 25,6 20,3 15,6 17,0 13,-3 18,-3" fill="#ffff00" stroke="#ff6600" stroke-width="1"/>
      <text x="-5" y="25" font-family="Comic Sans MS" font-size="12" fill="#ff0000" font-weight="bold">POW!</text>
    </g>
  </g>
  
  <g class="biden2">
    <g class="biden-body" transform="translate(0, 85)">
      <ellipse cx="22" cy="68" rx="18" ry="5" fill="rgba(0,0,0,0.25)"/>
      <rect x="6" y="25" width="32" height="30" rx="4" fill="#2c3e50"/>
      <rect x="17" y="25" width="10" height="24" fill="white"/>
      <polygon points="22,27 17,50 22,56 27,50" fill="#3498db"/>
      <rect x="10" y="52" width="10" height="15" fill="#2c3e50"/>
      <rect x="24" y="52" width="10" height="15" fill="#2c3e50"/>
      <rect x="8" y="65" width="13" height="6" rx="2" fill="#1a1a1a"/>
      <rect x="23" y="65" width="13" height="6" rx="2" fill="#1a1a1a"/>
      <ellipse cx="22" cy="14" rx="16" ry="18" fill="#FFCC99"/>
      <ellipse cx="22" cy="2" rx="15" ry="10" fill="#e8e8e8"/>
      <ellipse cx="10" cy="4" rx="8" ry="6" fill="#f5f5f5"/>
      <ellipse cx="34" cy="4" rx="8" ry="6" fill="#f5f5f5"/>
      <ellipse cx="14" cy="13" rx="8" ry="7" fill="#1a1a1a"/>
      <ellipse cx="30" cy="13" rx="8" ry="7" fill="#1a1a1a"/>
      <rect x="21" y="11" width="2" height="4" fill="#1a1a1a"/>
      <line x1="6" y1="12" x2="-2" y2="8" stroke="#1a1a1a" stroke-width="2.5"/>
      <line x1="38" y1="12" x2="46" y2="8" stroke="#1a1a1a" stroke-width="2.5"/>
      <ellipse cx="12" cy="11" rx="3" ry="2" fill="#333" opacity="0.5"/>
      <ellipse cx="28" cy="11" rx="3" ry="2" fill="#333" opacity="0.5"/>
      <path d="M16 28 Q22 24 28 28" stroke="#bb9999" stroke-width="2.5" fill="none"/>
      <text x="44" y="-2" font-family="Comic Sans MS, cursive" font-size="13" fill="#555" font-weight="bold">z</text>
      <text x="53" y="-10" font-family="Comic Sans MS, cursive" font-size="10" fill="#777" font-weight="bold">z</text>
      <text x="60" y="-16" font-family="Comic Sans MS, cursive" font-size="8" fill="#999" font-weight="bold">z</text>
    </g>
  </g>
  
  <!-- Title -->
  <text x="580" y="28" font-family="Impact, Arial Black, sans-serif" font-size="24" fill="#cc0000" stroke="#FFD700" stroke-width="2">TRUMP RUN</text>
  <text x="580" y="48" font-family="Arial, sans-serif" font-size="11" fill="#333" font-weight="bold">💵 Collect Cash • 🔫 Blast Sleepy Joe</text>
</svg>
